<?xml version="1.0" encoding="UTF-8" standalone="no"?>
<!-- Created with Inkscape (http://www.inkscape.org/) -->

<svg
   width="210mm"
   height="297mm"
   viewBox="0 0 210 297"
   version="1.1"
   id="svg5"
   xml:space="preserve"
   xmlns:xlink="http://www.w3.org/1999/xlink"
   xmlns="http://www.w3.org/2000/svg"
   xmlns:svg="http://www.w3.org/2000/svg"><defs
     id="defs2"><linearGradient
       id="linearGradient3869"><stop
         style="stop-color:#fbf2f5;stop-opacity:1;"
         offset="0"
         id="stop3865" /><stop
         style="stop-color:#fd7a00;stop-opacity:0.98823529;"
         offset="1"
         id="stop3867" /></linearGradient><linearGradient
       id="linearGradient3735"><stop
         style="stop-color:#fb7a01;stop-opacity:1;"
         offset="0"
         id="stop3731" /><stop
         style="stop-color:#6363ff;stop-opacity:0;"
         offset="1"
         id="stop3733" /></linearGradient><linearGradient
       xlink:href="#linearGradient3735"
       id="linearGradient3737"
       x1="317.70471"
       y1="320.92264"
       x2="419.86349"
       y2="375.92499"
       gradientUnits="userSpaceOnUse" /><linearGradient
       xlink:href="#linearGradient3869"
       id="linearGradient3871"
       x1="438.12241"
       y1="403.03473"
       x2="510.19452"
       y2="427.69092"
       gradientUnits="userSpaceOnUse" /></defs><g
     id="layer1"><g
       id="g3068"
       transform="translate(9.5806452,0.70967504)"><path
         style="fill:#b9b9b9;fill-opacity:1;stroke-width:0.264583"
         d="M 30.376474,104.67742 V 50.967007 h 67.20417 67.204166 v 53.710413 53.71042 H 97.580644 30.376474 Z m 55.097349,25.60717 0.06828,-15.40324 1.470729,1.33194 c 2.348807,2.12717 4.39352,3.13164 7.988125,3.9242 l 0.727605,0.16043 v -1.98438 c 0,-1.95064 -0.01238,-1.98702 -0.727605,-2.14005 -1.608251,-0.34411 -3.05471,-1.01312 -4.515448,-2.08845 -4.759217,-3.50354 -6.322708,-9.97595 -3.724759,-15.419459 1.026379,-2.150586 3.547081,-4.754232 5.537436,-5.719649 4.447497,-2.157245 9.847984,-1.18713 13.382094,2.403891 l 1.44341,1.466662 -0.0752,-2.989006 -0.0752,-2.989006 -1.5875,-0.887746 c -2.50537,-1.401029 -4.66538,-1.978379 -7.540622,-2.01554 -1.382448,-0.01786 -3.168385,0.124002 -3.96875,0.315262 -5.393595,1.28888 -10.17138,5.970479 -11.832096,11.593882 -0.402542,1.363069 -0.460105,3.594289 -0.539713,20.920179 l -0.08911,19.39437 -2.533071,-1.33353 c -9.644174,-5.07716 -16.923129,-14.18833 -19.819129,-24.80788 -5.619196,-20.60545 6.2697,-42.19396 26.71388,-48.508523 5.907035,-1.824497 13.27828,-2.274571 18.885551,-1.153116 l 0.85536,0.171071 V 62.542527 60.558153 L 104.6679,60.388114 C 102.14456,59.883437 97.409469,59.69271 94.211635,59.96694 81.233933,61.079844 70.096374,67.231626 62.364381,77.557631 53.388642,89.54465 51.243707,106.08335 56.88092,119.83831 c 4.270561,10.42028 11.822584,18.48283 21.758017,23.22889 2.357221,1.12601 5.917668,2.53547 6.570303,2.60094 0.107969,0.0108 0.227031,-6.91176 0.264583,-15.38355 z"
         id="path3082" /><path
         style="fill:#a3a3a3;fill-opacity:1;stroke-width:0.264583"
         d="M 30.376474,104.67742 V 50.967007 h 67.20417 67.204166 v 53.710413 53.71042 H 97.580644 30.376474 Z M 85.40981,130.4743 c 0,-8.36745 0.05893,-15.21354 0.130958,-15.21354 0.07203,0 0.846916,0.57692 1.721975,1.28205 2.17574,1.75323 3.824293,2.60395 6.246553,3.22346 2.435307,0.62284 2.518926,0.56354 2.419975,-1.71625 l -0.06842,-1.57636 -1.995683,-0.67595 c -4.414729,-1.49532 -7.432482,-5.13308 -8.182391,-9.86352 -0.507751,-3.2029 0.251566,-6.220248 2.297925,-9.131421 2.629154,-3.740267 6.724327,-5.514007 11.121295,-4.816962 2.536263,0.402069 4.337063,1.317157 6.298493,3.200617 l 1.70515,1.637374 v -2.924773 -2.924773 l -1.25677,-0.803407 c -3.52729,-2.254875 -8.98238,-2.941995 -13.017427,-1.639668 -3.825832,1.2348 -7.498292,4.338386 -9.368285,7.917108 -1.97431,3.778365 -1.866876,2.453905 -1.960412,24.167975 l -0.08404,19.51072 -1.790865,-0.90186 C 68.68084,133.7123 60.802098,123.23045 58.378727,110.95539 c -0.82772,-4.19263 -0.82772,-10.47997 0,-14.672604 3.128642,-15.847462 14.946202,-28.071576 30.513704,-31.563458 4.914318,-1.10231 11.344669,-1.248635 15.791179,-0.359333 l 0.83453,0.166907 v -1.986589 c 0,-2.357935 0.33762,-2.16564 -4.56817,-2.601855 -8.484524,-0.754429 -17.96427,1.394843 -25.41291,5.76168 -19.973383,11.709589 -27.46978,36.664012 -17.238531,57.384572 4.926589,9.97744 13.744456,17.86857 24.213776,21.66897 1.375346,0.49926 2.589927,0.91368 2.699068,0.92095 0.10914,0.007 0.198437,-6.83289 0.198437,-15.20033 z"
         id="path3080" /><path
         style="fill:#8c8c8c;fill-opacity:1;stroke-width:0.264583"
         d="M 30.376474,104.67742 V 50.967007 h 67.20417 67.204166 v 53.710413 53.71042 H 97.580644 30.376474 Z m 55.292384,25.99531 c -0.01757,-8.2583 -0.02352,-15.10874 -0.0132,-15.22318 0.01032,-0.11445 0.742759,0.39445 1.627671,1.13088 2.2697,1.88886 4.839606,3.08483 7.717635,3.59159 l 0.992187,0.17471 v -2.00878 c 0,-1.97639 -0.01175,-2.01135 -0.727604,-2.16809 -5.146964,-1.12692 -9.013413,-5.34957 -9.557057,-10.43751 -0.111914,-1.04739 -0.106037,-2.63596 0.01307,-3.53016 0.486683,-3.654153 3.323971,-7.524869 6.75199,-9.211276 1.729758,-0.850947 1.900896,-0.8812 4.985033,-0.8812 3.106567,0 3.242017,0.0245 4.960337,0.897004 1.0919,0.554431 2.32419,1.481608 3.22666,2.427755 l 1.46008,1.53075 v -2.995486 -2.995485 l -1.31862,-0.846159 c -2.3725,-1.522428 -4.77447,-2.179269 -8.074084,-2.207937 -3.256325,-0.02829 -5.0516,0.380738 -7.59618,1.730703 -2.9186,1.548392 -6.037353,4.946338 -7.349485,8.007419 -1.272122,2.967702 -1.326229,3.933672 -1.326229,23.676742 0,14.15484 -0.0744,18.53198 -0.314976,18.53198 -0.173236,0 -1.405176,-0.60395 -2.737644,-1.34211 C 71.282171,134.58815 64.870102,127.75728 61.499424,120.53277 55.708402,108.12065 56.683282,93.399965 64.042705,82.129221 72.887742,68.583306 88.358568,61.765615 104.39367,64.347342 l 1.12447,0.181046 v -1.989883 c 0,-1.537228 -0.0916,-2.025025 -0.40257,-2.144365 -0.22141,-0.08496 -2.00735,-0.296558 -3.96875,-0.470205 -12.096444,-1.070932 -24.408771,3.191872 -33.400536,11.564016 -7.011488,6.528327 -11.392043,14.48211 -13.331315,24.205703 -0.866984,4.347086 -0.866984,11.503776 0,15.850866 3.140197,15.74509 13.371765,27.7915 28.349008,33.37749 1.091406,0.40705 2.198677,0.74589 2.460604,0.75296 0.453506,0.0122 0.474704,-0.70361 0.444277,-15.00224 z"
         id="path3078" /><path
         style="fill:#767676;fill-opacity:1;stroke-width:0.264583"
         d="M 30.376474,104.67742 V 50.967007 h 67.20417 67.204166 v 53.710413 53.71042 H 97.580644 30.376474 Z m 55.297919,25.76609 v -15.24433 l 1.073404,0.96976 c 2.289027,2.06799 5.352159,3.59516 8.010674,3.99383 l 1.258078,0.18866 -0.07785,-2.06309 -0.07785,-2.06308 -1.322916,-0.2973 c -3.134083,-0.70432 -6.337137,-3.41798 -7.8806,-6.67653 -0.816663,-1.72413 -0.850651,-1.92802 -0.850651,-5.10317 0,-3.17758 0.03348,-3.37799 0.853684,-5.109667 1.145963,-2.41945 3.592187,-4.954926 5.855525,-6.069163 1.488935,-0.732999 2.050736,-0.857917 4.250135,-0.945015 3.932984,-0.155747 6.630524,0.944372 9.229624,3.764063 l 1.12684,1.222483 -0.0746,-3.109949 -0.0746,-3.109949 -1.45521,-0.870575 c -4.42927,-2.649805 -10.185973,-2.810703 -15.081249,-0.421521 -2.739581,1.337075 -5.834725,4.454602 -7.222885,7.275113 -1.768316,3.59293 -1.763239,3.52295 -1.768356,24.37365 -0.0026,10.2956 -0.07916,18.71927 -0.170302,18.71927 -0.330705,0 -3.447174,-1.65628 -5.125958,-2.72425 -16.931805,-10.77128 -23.161119,-32.73761 -14.42107,-50.852774 3.160408,-6.550458 8.697394,-12.675295 14.983069,-16.573793 4.043373,-2.50778 9.46648,-4.540985 14.38696,-5.393891 2.759636,-0.47835 9.148611,-0.55745 11.906251,-0.147408 1.01865,0.151465 2.00091,0.277749 2.18282,0.280631 0.51121,0.0081 0.458,-3.858051 -0.0558,-4.055221 -1.0618,-0.407452 -6.419801,-0.754467 -9.403052,-0.608997 -6.539659,0.318889 -12.314387,1.812293 -17.917164,4.633561 -5.29979,2.6687 -11.177617,7.472175 -14.739565,12.045458 -9.152121,11.750669 -11.796646,26.955644 -7.142034,41.063884 3.592963,10.89035 12.288236,20.72591 22.671346,25.64444 2.707521,1.28257 5.823366,2.45603 6.610229,2.4895 0.435842,0.0186 0.46302,-0.87511 0.46302,-15.22463 z"
         id="path3076" /><path
         style="fill:#606060;fill-opacity:1;stroke-width:0.264583"
         d="M 30.376474,104.67742 V 50.967007 h 67.20417 67.204166 v 53.710413 53.71042 H 97.580644 30.376474 Z m 55.297919,25.76318 v -15.24724 l 1.12448,1.02828 c 2.309135,2.1116 5.170895,3.52294 8.005244,3.94798 l 1.212432,0.18181 -0.07785,-2.06309 -0.07785,-2.06308 -1.322916,-0.2973 c -3.247311,-0.72976 -6.60925,-3.67292 -7.95545,-6.96448 -0.965975,-2.36189 -1.176253,-5.70221 -0.51317,-8.15184 0.869542,-3.212346 3.543752,-6.414481 6.616536,-7.92272 1.479037,-0.725969 1.796325,-0.779206 4.64393,-0.779206 2.999921,0 3.093651,0.01839 5.068901,0.994616 1.41553,0.69959 2.41467,1.434682 3.36838,2.478196 l 1.35591,1.483583 -0.0748,-3.137525 -0.0748,-3.137521 -1.42078,-0.84845 c -4.45704,-2.661619 -10.287851,-2.879217 -15.039273,-0.56125 -1.288807,0.628737 -2.435143,1.511556 -4.058103,3.125226 -2.572588,2.557862 -3.693533,4.44613 -4.491469,7.566031 -0.496522,1.94138 -0.522668,2.98789 -0.522668,20.919 0,10.38146 -0.0625,18.87538 -0.138896,18.87538 -0.07639,0 -0.946846,-0.40687 -1.934334,-0.90416 -7.155001,-3.6032 -13.63847,-10.17949 -17.37948,-17.62829 -3.709509,-7.38607 -5.0066,-16.30895 -3.581035,-24.634482 2.708222,-15.816445 14.921754,-28.430382 31.002863,-32.019252 2.326426,-0.519196 3.49517,-0.613251 7.641299,-0.614941 2.692136,-0.0011 5.703656,0.09734 6.692266,0.218738 l 1.79747,0.220732 -0.0777,-2.069074 -0.0777,-2.069073 -1.05833,-0.1923 c -0.58208,-0.105765 -2.72521,-0.272919 -4.762504,-0.371452 -11.875821,-0.574374 -23.40999,3.664628 -31.876972,11.715325 -4.633365,4.405563 -7.159102,7.861636 -9.802194,13.41275 -1.778147,3.73453 -2.641796,6.347415 -3.477925,10.522124 -0.811324,4.050858 -0.869626,11.707005 -0.119603,15.706065 1.387451,7.39778 4.546178,14.38575 9.017504,19.94919 2.795845,3.47872 7.14958,7.34186 11.009057,9.76849 3.128931,1.96731 9.500259,4.77486 10.896487,4.80159 0.435718,0.008 0.46302,-0.89022 0.46302,-15.23838 z m 23.942917,14.45652 c 0.0927,-0.14998 -0.0135,-0.19434 -0.24896,-0.10399 -0.45837,0.1759 -0.54224,0.36554 -0.16165,0.36554 0.13693,0 0.32171,-0.1177 0.41061,-0.26155 z m -17.664573,-1.4858 c -0.08792,-0.0879 -0.316125,-0.0973 -0.507119,-0.0209 -0.211066,0.0845 -0.148373,0.14716 0.159853,0.15985 0.278913,0.0115 0.435184,-0.051 0.347266,-0.13896 z m 11.906253,0 c -0.0879,-0.0879 -0.31613,-0.0973 -0.50712,-0.0209 -0.21107,0.0845 -0.14837,0.14716 0.15985,0.15985 0.27891,0.0115 0.43519,-0.051 0.34727,-0.13896 z m 11.85261,-0.31822 c -0.0815,-0.0815 -0.29495,-1.7e-4 -0.47443,0.18066 -0.25936,0.2613 -0.22897,0.29169 0.14812,0.14811 0.26093,-0.0994 0.40778,-0.2473 0.32631,-0.32877 z m -4.1797,-1.26928 c -0.0879,-0.0879 -0.31612,-0.0973 -0.50711,-0.0209 -0.21107,0.0845 -0.14838,0.14716 0.15985,0.15985 0.27891,0.0115 0.43518,-0.051 0.34726,-0.13896 z m 7.14375,0 c -0.0879,-0.0879 -0.31612,-0.0973 -0.50711,-0.0209 -0.21107,0.0845 -0.14838,0.14716 0.15985,0.15985 0.27891,0.0115 0.43518,-0.051 0.34726,-0.13896 z m 3.62796,-2.3621 c 0.28248,-0.21366 0.40154,-0.38468 0.26458,-0.38005 -0.13695,0.005 -0.48012,0.18322 -0.76259,0.39687 -0.28248,0.21366 -0.40154,0.38468 -0.26459,0.38005 0.13696,-0.005 0.48013,-0.18322 0.7626,-0.39687 z m 2.26454,-4.6218 c 0,-0.14552 -0.12609,-0.26458 -0.2802,-0.26458 -0.15411,0 -0.20662,0.11906 -0.11668,0.26458 0.0899,0.14552 0.21603,0.26458 0.2802,0.26458 0.0642,0 0.11668,-0.11906 0.11668,-0.26458 z m 6.48229,-3.43958 c 0.0899,-0.14552 0.0374,-0.26459 -0.11668,-0.26459 -0.15411,0 -0.2802,0.11907 -0.2802,0.26459 0,0.14552 0.0525,0.26458 0.11668,0.26458 0.0642,0 0.19026,-0.11906 0.2802,-0.26458 z m -0.30248,-1.29292 c -0.12468,-0.0926 -0.30128,-0.26149 -0.39244,-0.37522 -0.0912,-0.11372 -0.23863,-0.0169 -0.3277,0.21526 -0.0938,0.24446 -0.0519,0.35401 0.0996,0.26038 0.14385,-0.0889 0.26155,-0.0285 0.26155,0.13416 0,0.1627 0.13177,0.21438 0.29283,0.11484 0.16106,-0.0995 0.19082,-0.25678 0.0661,-0.34942 z m 0.88009,-2.19627 c -0.0845,-0.21107 -0.14715,-0.14838 -0.15985,0.15985 -0.0115,0.27891 0.0511,0.43518 0.13897,0.34726 0.0879,-0.0879 0.0973,-0.31612 0.0209,-0.50711 z m -1.00025,-1.38727 c -0.0696,-0.0696 -0.28419,0.13592 -0.47684,0.45672 -0.33468,0.55729 -0.32904,0.56293 0.12656,0.12656 0.26226,-0.2512 0.41988,-0.51367 0.35028,-0.58328 z m 3.99451,-0.91589 c 0,-0.11268 -0.17859,-0.20488 -0.39687,-0.20488 -0.41472,0 -0.51644,0.23322 -0.22768,0.52198 0.19765,0.19765 0.62455,-0.0191 0.62455,-0.3171 z m -1.37401,-3.34278 c -0.0815,-0.0815 -0.22941,0.0654 -0.32877,0.32632 -0.14358,0.37708 -0.11319,0.40747 0.14811,0.14811 0.18083,-0.17947 0.26212,-0.39297 0.18066,-0.47443 z m 2.11666,-4.49791 c -0.0815,-0.0815 -0.2294,0.0654 -0.32876,0.32631 -0.14359,0.37709 -0.1132,0.40748 0.14811,0.14812 0.18082,-0.17948 0.26212,-0.39297 0.18065,-0.47443 z m -36.809826,-0.70407 c -0.08446,-0.21107 -0.147156,-0.14837 -0.159851,0.15985 -0.01148,0.27892 0.05105,0.43519 0.138964,0.34727 0.08792,-0.0879 0.09732,-0.31613 0.02088,-0.50712 z m 10.880666,-3.0001 c -0.0815,-0.0815 -0.22941,0.0654 -0.32877,0.32632 -0.14358,0.37708 -0.11319,0.40747 0.14811,0.14811 0.18082,-0.17948 0.26212,-0.39297 0.18066,-0.47443 z m -2.06557,0.13929 c 0.21828,-0.14106 0.27781,-0.25648 0.13229,-0.25648 -0.14552,0 -0.44318,0.11542 -0.66146,0.25648 -0.21828,0.14107 -0.27781,0.25648 -0.13229,0.25648 0.14552,0 0.44318,-0.11541 0.66146,-0.25648 z m -1.05834,-0.79375 c 0,-0.14552 -0.12609,-0.26458 -0.28019,-0.26458 -0.15411,0 -0.20662,0.11906 -0.11668,0.26458 0.0899,0.14552 0.21603,0.26459 0.2802,0.26459 0.0642,0 0.11667,-0.11907 0.11667,-0.26459 z m 30.93766,-1.40468 c -0.0179,-0.55889 -0.0268,-0.56071 -0.24599,-0.0505 -0.31294,0.72826 -0.31294,0.98716 0,0.79375 0.14552,-0.0899 0.25622,-0.42438 0.24599,-0.74322 z m -28.6887,-0.97657 c -0.0899,-0.14552 -0.30532,-0.26276 -0.47863,-0.26053 -0.18934,0.002 -0.15671,0.10642 0.0818,0.26053 0.50829,0.32849 0.59989,0.32849 0.39687,0 z m 1.98033,-1.66926 c 0.002,-0.11773 -0.11501,-0.14047 -0.26054,-0.0505 -0.14552,0.0899 -0.26276,0.36486 -0.26053,0.61093 0.003,0.38557 0.0395,0.39255 0.26053,0.0505 0.14107,-0.21828 0.25831,-0.4932 0.26054,-0.61093 z m -1.6673,-0.7616 c -0.0845,-0.21106 -0.14715,-0.14837 -0.15985,0.15986 -0.0115,0.27891 0.0511,0.43518 0.13897,0.34726 0.0879,-0.0879 0.0973,-0.31612 0.0209,-0.50712 z m 29.36324,-17.479033 c -0.0734,-0.181901 -0.13345,-0.03307 -0.13345,0.330729 0,0.363802 0.0601,0.51263 0.13345,0.330729 0.0734,-0.181901 0.0734,-0.479557 0,-0.661458 z m -3.05281,-2.650244 c -0.26131,-0.259361 -0.2917,-0.228971 -0.14811,0.148113 0.0994,0.260938 0.2473,0.407782 0.32876,0.326319 0.0815,-0.08146 1.7e-4,-0.294955 -0.18065,-0.474432 z m -1.05833,-2.116667 c -0.26131,-0.25936 -0.2917,-0.22897 -0.14812,0.148114 0.0994,0.260937 0.24731,0.407781 0.32877,0.326318 0.0815,-0.08146 1.7e-4,-0.294954 -0.18065,-0.474432 z m -1.60638,-3.20004 c -0.37056,-0.974638 -0.57825,-0.877877 -0.23418,0.109104 0.15477,0.443989 0.3305,0.758158 0.39051,0.69815 0.06,-0.06 -0.0103,-0.423269 -0.15633,-0.807254 z m 1.30896,-0.962737 c 0,-0.14552 -0.11906,-0.264583 -0.26458,-0.264583 -0.14552,0 -0.26458,0.119063 -0.26458,0.264583 0,0.145521 0.11906,0.264584 0.26458,0.264584 0.14552,0 0.26458,-0.119063 0.26458,-0.264584 z m -2.64583,-1.058333 c 0,-0.145521 -0.12609,-0.264583 -0.2802,-0.264583 -0.15411,0 -0.20661,0.119062 -0.11668,0.264583 0.0899,0.145521 0.21603,0.264583 0.2802,0.264583 0.0642,0 0.11668,-0.119062 0.11668,-0.264583 z m -3.96875,-4.862395 c 0,-0.05494 -0.20836,-0.263301 -0.46302,-0.46302 -0.41965,-0.329108 -0.42901,-0.31975 -0.0999,0.09989 0.34565,0.44073 0.56292,0.580888 0.56292,0.363126 z m -2.18833,-4.028707 c -0.0879,-0.08792 -0.31612,-0.09732 -0.50711,-0.02089 -0.21107,0.08446 -0.14838,0.147157 0.15985,0.159852 0.27891,0.01149 0.43518,-0.05105 0.34726,-0.138964 z m 1.34348,-1.56694 c -0.0815,-0.08146 -0.22941,0.06538 -0.32877,0.326319 -0.14358,0.377084 -0.11319,0.407475 0.14812,0.148112 0.18082,-0.179476 0.26211,-0.39297 0.18065,-0.474431 z m -13.2593,-0.84786 c -0.0671,-0.257431 -0.12638,-0.110868 -0.13177,0.325694 -0.005,0.436563 0.0495,0.647188 0.12197,0.468056 0.0725,-0.179131 0.0769,-0.536319 0.01,-0.79375 z m 11.12207,0.03355 c -0.0879,-0.08792 -0.31612,-0.09732 -0.50711,-0.02089 -0.21107,0.08446 -0.14838,0.147157 0.15985,0.159853 0.27891,0.01149 0.43518,-0.05105 0.34726,-0.138965 z m -2.30959,-2.34438 c 0,-0.06764 -0.26789,-0.252803 -0.59531,-0.411471 -0.57167,-0.277029 -0.57491,-0.272144 -0.0817,0.122982 0.53982,0.432485 0.67703,0.490953 0.67703,0.288489 z"
         id="path3074" /><path
         style="fill:#494949;fill-opacity:1;stroke-width:0.264583"
         d="M 30.376474,104.67742 V 50.967007 h 67.20417 67.204166 v 53.710413 53.71042 H 97.580644 30.376474 Z m 73.204296,42.31594 c 7.71125,-1.05063 16.2901,-4.84017 22.03407,-9.73312 4.6219,-3.93713 8.49408,-8.88618 11.10573,-14.19428 2.82887,-5.74959 4.03791,-10.11426 4.50617,-16.26743 0.85209,-11.196808 -2.71635,-22.440271 -9.84317,-31.013879 -1.53289,-1.844075 -5.73164,-6.032228 -6.04749,-6.032228 -0.11053,0 -0.35945,-0.158482 -0.55315,-0.352181 -0.80186,-0.801862 -4.32254,-3.159724 -6.36243,-4.261041 -2.30188,-1.242759 -7.1117,-3.237708 -8.45276,-3.505921 l -0.79101,-0.158202 0.0732,22.328775 c 0.079,24.099717 0.12261,23.254617 -1.35103,26.158557 -1.52828,3.01159 -5.38034,5.84001 -8.520991,6.25664 l -1.268068,0.16821 v 1.95029 c 0,2.2949 -0.03989,2.27719 3.239599,1.43844 3.03297,-0.77571 4.53745,-1.67092 7.09041,-4.21903 2.80697,-2.80162 4.25207,-5.50577 4.72403,-8.83983 0.19056,-1.34619 0.29179,-8.574736 0.29179,-20.835932 0,-12.017965 0.0928,-18.774608 0.25795,-18.774608 0.14187,0 1.06461,0.430645 2.05052,0.956989 8.42585,4.498248 14.80679,11.262601 18.36663,19.470217 5.03956,11.619274 4.36142,25.062254 -1.80496,35.780174 -3.43031,5.96231 -8.85354,11.45272 -14.59842,14.77925 -7.11691,4.12099 -15.94696,6.04869 -23.850883,5.20693 -1.67349,-0.17823 -3.399896,-0.33899 -3.836458,-0.35724 l -0.79375,-0.0332 0.04798,1.71979 c 0.0264,0.94589 0.05616,1.79517 0.06615,1.88729 0.06885,0.63499 10.493404,0.98435 14.220371,0.47657 z M 85.674393,130.41921 v -15.26863 l 1.12448,1.08825 c 0.618463,0.59854 1.719791,1.46094 2.447396,1.91643 1.398418,0.87544 5.000331,2.13258 6.110205,2.13258 0.65142,0 0.658048,-0.023 0.581652,-2.02113 l -0.07727,-2.02112 -1.388885,-0.35466 c -2.150354,-0.5491 -3.496797,-1.3554 -5.256774,-3.14795 -2.487218,-2.53324 -3.521937,-5.11 -3.534331,-8.80151 -0.02189,-6.521561 5.280163,-11.964048 11.655352,-11.964048 3.309882,0 6.841082,1.602185 8.740512,3.965771 0.46909,0.583721 0.95203,1.061313 1.0732,1.061313 0.12116,0 0.2203,-1.288934 0.2203,-2.864297 0,-3.320045 -0.0383,-3.384775 -2.8337,-4.796071 -4.23988,-2.140524 -10.22446,-2.068763 -14.450078,0.173271 -2.089653,1.108728 -5.69458,4.854223 -6.885949,7.154444 -1.752068,3.382787 -1.749729,3.350357 -1.754846,24.343587 -0.0026,10.36836 -0.09389,18.84957 -0.203031,18.84714 -0.478798,-0.0107 -4.878184,-2.54973 -6.789775,-3.91865 -6.622597,-4.74256 -12.08528,-12.12543 -14.547908,-19.66166 -1.629223,-4.98581 -1.876325,-6.65199 -1.877997,-12.66318 -0.0016,-5.998616 0.389961,-8.540857 2.033071,-13.19755 4.962108,-14.062978 17.563252,-24.268318 32.409034,-26.247235 2.2577,-0.300948 9.745339,-0.186017 12.056909,0.185067 l 0.99218,0.159279 v -2.114028 -2.114028 l -3.09482,-0.333369 c -3.648068,-0.392963 -9.185048,-0.219888 -12.647881,0.395346 -11.695695,2.07795 -22.162861,9.011522 -28.884413,19.133369 -2.371934,3.571851 -3.735377,6.400353 -5.098333,10.57665 -1.639304,5.023066 -2.003129,7.557343 -1.984179,13.821079 0.01839,6.07934 0.404217,8.57979 2.116887,13.7191 3.653776,10.9641 12.203094,20.6887 22.472954,25.56233 2.407397,1.14245 6.011813,2.49698 6.68073,2.51061 l 0.595312,0.0121 z"
         id="path3072" /><path
         style="fill:#333333;fill-opacity:1;stroke-width:0.264583"
         d="M 30.376474,104.67742 V 50.967007 h 67.20417 67.204166 v 53.710413 53.71042 H 97.580644 30.376474 Z m 71.646366,42.58121 c 5.31622,-0.58204 10.74246,-2.14186 15.14782,-4.35437 6.03127,-3.02908 12.38384,-8.46274 16.23339,-13.88517 9.47551,-13.34714 10.6878,-30.6448 3.19101,-45.531427 -4.03008,-8.002665 -11.15635,-15.000629 -19.58987,-19.237158 -1.6807,-0.844285 -7.16684,-2.964748 -7.67052,-2.964748 -0.0556,0 -0.13334,10.328671 -0.17283,22.952603 l -0.0718,22.9526 -0.98296,2.05855 c -1.69215,3.54377 -4.79707,6.03205 -8.475895,6.79258 l -1.521354,0.31452 v 1.96561 1.96562 l 0.992187,-0.003 c 5.816152,-0.0184 12.602492,-6.07219 13.973282,-12.46493 0.28676,-1.33732 0.3637,-5.69648 0.37107,-21.023768 0.005,-10.635148 0.0781,-19.405443 0.16221,-19.489545 0.3727,-0.372701 5.33901,2.54605 8.46509,4.975016 8.78498,6.825944 14.31315,17.104591 15.17358,28.212577 0.86224,11.13141 -2.97024,22.12732 -10.50014,30.12629 -3.84667,4.08629 -7.32454,6.628 -12.23311,8.9402 -5.6187,2.64671 -9.03405,3.45419 -15.511608,3.66735 -4.057679,0.13354 -7.684254,-0.10296 -9.425374,-0.61464 -0.413658,-0.12156 -0.463021,0.089 -0.463021,1.97517 v 2.11124 l 1.039021,0.17554 c 3.941268,0.66587 8.071473,0.79929 11.869842,0.38343 z M 85.674393,130.5515 v -15.40092 l 1.12448,1.08659 c 2.218462,2.14373 6.217764,4.05067 8.495191,4.05067 0.695685,0 0.69908,-0.01 0.69908,-2.05405 v -2.05406 l -1.344353,-0.31934 c -2.094635,-0.49756 -3.687647,-1.3984 -5.271331,-2.98088 -4.915168,-4.91146 -4.962737,-12.4323 -0.10994,-17.381576 4.61059,-4.70226 11.66095,-4.721085 16.26654,-0.04343 0.83937,0.852501 1.59588,1.550004 1.68115,1.550004 0.0853,0 0.15502,-1.30505 0.15502,-2.900109 0,-3.285265 -0.0241,-3.332046 -2.37297,-4.610473 -2.9568,-1.609293 -7.942367,-2.202627 -11.263631,-1.34049 -5.366603,1.393066 -9.876124,5.633296 -11.664295,10.967738 -0.451249,1.346156 -0.498025,2.929146 -0.624184,21.123756 l -0.136382,19.66854 -2.116667,-1.11687 c -8.551823,-4.5124 -15.086936,-11.78036 -18.643976,-20.73469 -1.003996,-2.52741 -2.007079,-6.50236 -2.40946,-9.54803 -0.423894,-3.2085 -0.166524,-9.863979 0.501343,-12.964581 C 61.945916,80.201517 73.676922,68.330369 88.981685,64.845149 92.8994,63.953002 99.45735,63.68464 103.20304,64.263187 l 2.3151,0.357584 v -2.175614 -2.175615 l -1.78593,-0.219497 c -3.23107,-0.397107 -11.329219,-0.237535 -13.956775,0.275016 -6.5175,1.271352 -13.135547,4.042144 -17.517293,7.334002 -0.75774,0.569265 -1.487575,1.035027 -1.621856,1.035027 -0.456968,0 -6.544766,6.216612 -8.035463,8.205487 -4.587965,6.121224 -7.402474,12.858184 -8.565069,20.501804 -0.3407,2.239975 -0.410627,3.977029 -0.303554,7.540629 0.187526,6.24121 0.99173,10.09384 3.245343,15.54717 4.770682,11.54417 14.264887,20.49672 26.183309,24.68952 1.164166,0.40955 2.205963,0.75117 2.315104,0.75917 0.109141,0.008 0.198437,-6.91586 0.198437,-15.38637 z"
         id="path3070" /></g><path
       style="fill:none;stroke-width:1.00584"
       d="m 352.71527,551.23572 c -13.52985,-4.77635 -29.09745,-12.504 -40.23368,-19.97173 -8.6491,-5.7999 -16.52752,-12.3178 -24.31343,-20.11472 -13.34881,-13.36771 -23.2357,-27.23528 -31.6825,-44.43858 -9.42078,-19.18695 -14.5524,-37.47978 -16.2735,-58.01053 -0.52956,-6.31702 -0.22795,-27.72819 0.46511,-33.01817 3.05133,-23.2902 9.35924,-43.02489 19.68827,-61.59603 11.16728,-20.07825 27.74506,-38.99546 46.06549,-52.56614 22.40299,-16.5948 48.55359,-27.14738 76.79478,-30.98907 7.93813,-1.07984 12.43622,-1.35924 21.94192,-1.36295 9.71001,-0.004 15.88615,0.36259 22.81673,1.35352 5.59427,0.79986 6.09785,1.10163 6.46698,3.87547 0.38985,2.92943 0.15836,10.74358 -0.33279,11.23356 -0.31611,0.31536 -1.38405,0.246 -4.86157,-0.31573 -8.00288,-1.29272 -9.701,-1.43413 -19.5441,-1.6275 -12.83558,-0.25216 -20.9725,0.35694 -32.68987,2.44703 -43.24464,7.71376 -81.66838,35.33085 -103.64523,74.49506 -17.5861,31.3396 -23.47198,68.38394 -16.39379,103.17865 8.50338,41.80064 34.02213,77.93663 70.60867,99.98585 3.54918,2.13895 16.2559,8.90833 16.39395,8.73371 0.0442,-0.0559 0.25937,-30.50329 0.47809,-67.66077 0.21873,-37.15748 0.54188,-70.02747 0.71812,-73.04441 0.44299,-7.58345 1.08931,-11.50307 2.53455,-15.371 6.57018,-17.58391 20.42818,-31.7853 37.23021,-38.15273 8.99353,-3.40826 22.7322,-4.08076 33.59494,-1.64444 2.13638,0.47915 4.94646,1.24367 6.24464,1.69893 2.97278,1.04254 11.15537,5.10511 13.59222,6.7484 l 1.84404,1.24353 0.21055,4.69393 c 0.11581,2.58166 0.22896,7.39227 0.25146,10.69024 l 0.0409,5.99631 -3.77191,-3.65129 c -5.85763,-5.67032 -9.74489,-8.37886 -16.22337,-11.30397 -7.53566,-3.40244 -19.29131,-4.1251 -28.20171,-1.73364 -7.27317,1.95204 -12.27834,4.96314 -18.37282,11.05305 -6.34726,6.34249 -9.79623,11.54603 -12.18966,18.39083 -1.94291,5.55642 -2.50403,9.10179 -2.50403,15.82136 0,4.951 0.13211,6.64866 0.73549,9.45103 2.09017,9.70773 6.34037,17.4477 13.27556,24.17591 5.43457,5.27238 11.64454,9.02509 18.13383,10.95836 4.81648,1.43491 5.33356,1.66182 5.77501,2.53419 0.28616,0.56551 0.41936,2.69867 0.42274,6.77049 l 0.005,5.94485 -0.87304,0.21911 c -2.01202,0.50499 -11.81992,-2.24639 -17.44315,-4.89327 -5.75192,-2.70745 -9.72049,-5.52255 -16.48395,-11.69286 -1.89827,-1.73179 -3.54516,-3.05495 -3.65976,-2.94035 -0.11459,0.1146 -0.32187,24.16285 -0.46063,53.44056 -0.23523,49.63764 -0.43263,62.80122 -0.94111,62.75854 -0.11242,-0.009 -2.46755,-0.81611 -5.23361,-1.79259 z"
       id="path3633"
       transform="scale(0.26458333)" /><path
       style="fill:url(#linearGradient3737);stroke-width:1.00584;fill-opacity:1"
       d="m 352.71527,551.23572 c -13.52985,-4.77635 -29.09745,-12.504 -40.23368,-19.97173 -8.6491,-5.7999 -16.52752,-12.3178 -24.31343,-20.11472 -13.34881,-13.36771 -23.2357,-27.23528 -31.6825,-44.43858 -9.42078,-19.18695 -14.5524,-37.47978 -16.2735,-58.01053 -0.52956,-6.31702 -0.22795,-27.72819 0.46511,-33.01817 3.05133,-23.2902 9.35924,-43.02489 19.68827,-61.59603 11.16728,-20.07825 27.74506,-38.99546 46.06549,-52.56614 22.40299,-16.5948 48.55359,-27.14738 76.79478,-30.98907 7.93813,-1.07984 12.43622,-1.35924 21.94192,-1.36295 9.71001,-0.004 15.88615,0.36259 22.81673,1.35352 5.59427,0.79986 6.09785,1.10163 6.46698,3.87547 0.38985,2.92943 0.15836,10.74358 -0.33279,11.23356 -0.31611,0.31536 -1.38405,0.246 -4.86157,-0.31573 -8.00288,-1.29272 -9.701,-1.43413 -19.5441,-1.6275 -12.83558,-0.25216 -20.9725,0.35694 -32.68987,2.44703 -43.24464,7.71376 -81.66838,35.33085 -103.64523,74.49506 -17.5861,31.3396 -23.47198,68.38394 -16.39379,103.17865 8.50338,41.80064 34.02213,77.93663 70.60867,99.98585 3.54918,2.13895 16.2559,8.90833 16.39395,8.73371 0.0442,-0.0559 0.25937,-30.50329 0.47809,-67.66077 0.21873,-37.15748 0.54188,-70.02747 0.71812,-73.04441 0.44299,-7.58345 1.08931,-11.50307 2.53455,-15.371 6.57018,-17.58391 20.42818,-31.7853 37.23021,-38.15273 8.99353,-3.40826 22.7322,-4.08076 33.59494,-1.64444 2.13638,0.47915 4.94646,1.24367 6.24464,1.69893 2.97278,1.04254 11.15537,5.10511 13.59222,6.7484 l 1.84404,1.24353 0.21055,4.69393 c 0.11581,2.58166 0.22896,7.39227 0.25146,10.69024 l 0.0409,5.99631 -3.77191,-3.65129 c -5.85763,-5.67032 -9.74489,-8.37886 -16.22337,-11.30397 -7.53566,-3.40244 -19.29131,-4.1251 -28.20171,-1.73364 -7.27317,1.95204 -12.27834,4.96314 -18.37282,11.05305 -6.34726,6.34249 -9.79623,11.54603 -12.18966,18.39083 -1.94291,5.55642 -2.50403,9.10179 -2.50403,15.82136 0,4.951 0.13211,6.64866 0.73549,9.45103 2.09017,9.70773 6.34037,17.4477 13.27556,24.17591 5.43457,5.27238 11.64454,9.02509 18.13383,10.95836 4.81648,1.43491 5.33356,1.66182 5.77501,2.53419 0.28616,0.56551 0.41936,2.69867 0.42274,6.77049 l 0.005,5.94485 -0.87304,0.21911 c -2.01202,0.50499 -11.81992,-2.24639 -17.44315,-4.89327 -5.75192,-2.70745 -9.72049,-5.52255 -16.48395,-11.69286 -1.89827,-1.73179 -3.54516,-3.05495 -3.65976,-2.94035 -0.11459,0.1146 -0.32187,24.16285 -0.46063,53.44056 -0.23523,49.63764 -0.43263,62.80122 -0.94111,62.75854 -0.11242,-0.009 -2.46755,-0.81611 -5.23361,-1.79259 z"
       id="path3706"
       transform="scale(0.26458333)" /><path
       style="fill:url(#linearGradient3871);stroke-width:1.00584;fill-opacity:1;opacity:1"
       d="m 393.11659,558.74693 c -9.70377,-0.45219 -17.43398,-1.28774 -18.60407,-2.0109 -0.36272,-0.22417 -0.49712,-1.76431 -0.61243,-7.01809 l -0.14773,-6.73089 h 1.16242 c 0.63934,0 3.52525,0.22631 6.41313,0.50292 2.88789,0.2766 7.62701,0.731 10.53137,1.00976 6.89992,0.66226 19.80939,0.65994 26.73864,-0.005 26.72887,-2.56417 52.89219,-12.06979 73.1537,-26.5781 12.44894,-8.91411 26.05407,-22.30329 35.16794,-34.60974 26.51042,-35.797 35.3992,-81.66281 24.4226,-126.01976 -8.99483,-36.3485 -31.04941,-67.42828 -63.00586,-88.78918 -7.24106,-4.84019 -20.46631,-12.17608 -21.95124,-12.17608 -0.33465,0 -0.72544,0.26404 -0.86842,0.58674 -0.31085,0.70164 -0.64807,40.5371 -0.75425,89.10084 -0.10841,49.58489 -0.43841,59.22033 -2.27138,66.32116 -1.79046,6.93611 -5.92244,14.8107 -10.91285,20.79732 -1.25274,1.50281 -1.6315,1.7947 -1.6315,1.2573 0,-0.38494 -0.20801,-0.69988 -0.46224,-0.69988 -0.55597,0 -1.36481,1.80605 -1.10826,2.47462 0.11539,0.30069 -1.37773,1.99965 -4.069,4.62997 -8.89852,8.69697 -14.13841,11.6092 -26.71508,14.84772 -5.66784,1.45949 -8.44459,1.78399 -9.35787,1.09363 -0.85258,-0.64448 -1.14861,-2.91255 -1.179,-9.03278 l -0.0245,-4.9302 1.25731,-0.18856 c 7.83991,-1.17578 12.25356,-2.61548 17.38861,-5.67207 5.63909,-3.35662 11.21762,-8.19802 14.72973,-12.78339 2.23794,-2.92183 5.18593,-8.16752 6.18472,-11.00518 0.3998,-1.13586 0.96601,-2.59327 1.25826,-3.23869 1.21028,-2.6729 1.3848,-14.12357 1.40781,-92.36982 0.0121,-41.12218 0.11872,-76.44644 0.23697,-78.49837 l 0.21499,-3.73077 1.87899,0.4463 c 5.58645,1.3269 18.95392,6.72272 28.5338,11.51776 5.23984,2.62271 14.92912,8.34078 14.63384,8.63607 -0.0876,0.0876 -0.47401,-0.009 -0.85861,-0.21491 -1.29036,-0.69058 -0.73971,0.25832 0.85769,1.47804 1.63666,1.24968 2.67841,1.55437 2.34515,0.68592 -0.10615,-0.27661 -0.10615,-0.50293 -10e-6,-0.50293 0.3475,0 6.60061,4.46075 9.23971,6.59129 1.41927,1.14577 2.92804,2.26579 3.35281,2.48893 0.42478,0.22314 1.48493,0.99781 2.3559,1.72148 l 1.58358,1.31577 -0.66156,0.71011 c -0.36385,0.39055 -0.66155,1.08513 -0.66155,1.54352 v 0.83342 l 0.8382,-0.78745 c 0.46101,-0.4331 0.8382,-0.99913 0.8382,-1.25785 0,-1.84939 17.21518,16.46015 24.05378,25.58288 13.38953,17.8617 23.86375,41.0996 28.55765,63.35741 2.57685,12.21906 3.52389,21.4281 3.53348,34.35973 0.0148,19.90311 -2.63635,36.55494 -8.46064,53.14198 -4.6424,13.22116 -12.14116,28.23291 -19.84655,39.73076 -9.70367,14.47967 -23.89761,29.63378 -36.97435,39.47556 -7.90072,5.9462 -19.46709,12.97191 -20.40129,12.39224 -0.63752,-0.39558 -2.42934,-0.0223 -2.14003,0.44582 0.11063,0.179 0.53171,0.33335 0.93574,0.34301 0.67927,0.0162 -7.35597,4.28729 -9.07026,4.8212 -0.59605,0.18564 -0.71045,0.1253 -0.55087,-0.29055 0.3173,-0.82687 -0.97848,-0.64842 -1.82358,0.25115 -0.40096,0.42679 -0.72901,0.93842 -0.72901,1.13695 0,0.39738 -6.22847,3.0223 -11.73482,4.94551 -1.93625,0.67628 -3.89764,1.36311 -4.35865,1.52629 -7.58274,2.68402 -22.16191,5.92262 -30.17526,6.70309 -4.84209,0.47161 -24.34262,0.67888 -31.68402,0.33677 z m 56.85211,-7.72494 c 0.8133,-0.43527 0.84865,-1.32933 0.0526,-1.32933 -0.69981,0 -2.08628,0.9039 -2.08628,1.36013 0,0.42146 1.22329,0.40293 2.03372,-0.0308 z m -66.07233,-6.03378 c 0,-0.51009 -0.88964,-0.7619 -1.8448,-0.52217 -1.30084,0.32649 -0.98663,0.86797 0.50368,0.86797 0.73761,0 1.34112,-0.15561 1.34112,-0.3458 z m 44.92761,-0.15712 c 0,-0.51948 -1.15736,-0.68105 -2.14998,-0.30015 -0.84906,0.32582 -0.25699,0.80307 0.99628,0.80307 0.80199,0 1.1537,-0.15332 1.1537,-0.50292 z m 29.16942,-5.87793 c 0,-0.51009 -0.88964,-0.7619 -1.8448,-0.52217 -1.30084,0.32649 -0.98663,0.86797 0.50367,0.86797 0.73762,0 1.34113,-0.15561 1.34113,-0.3458 z m 39.77895,-8.54966 c 0.79653,-0.46679 1.61813,-1.16617 1.82578,-1.55417 0.3514,-0.65659 0.31283,-0.68921 -0.55689,-0.47092 -1.07317,0.26935 -3.39434,1.83341 -3.64294,2.45471 -0.27202,0.67979 0.81739,0.48265 2.37405,-0.42962 z m 9.30259,-17.44836 c 0.26439,-0.68899 -0.35146,-1.81976 -0.99109,-1.81976 -0.78591,0 -0.95802,0.96362 -0.30166,1.6889 0.72023,0.79583 1.02571,0.82675 1.29275,0.13086 z M 531.142,499.85152 c 1.00427,-0.90885 0.64729,-2.04146 -0.50416,-1.59961 -0.62892,0.24135 -0.93572,0.98609 -0.68035,1.65157 0.24558,0.63996 0.42882,0.63192 1.18451,-0.052 z m -0.60568,-4.54595 c 0.2903,-0.461 0.16905,-0.77574 -0.61354,-1.59259 -1.13101,-1.18052 -1.69407,-1.276 -2.17921,-0.36951 -0.57611,1.07647 -0.43553,1.79978 0.31182,1.60434 0.45336,-0.11855 0.72377,0.0321 0.86685,0.48289 0.24286,0.76518 1.09502,0.69911 1.61408,-0.12513 z m 3.39815,-7.63983 c 0.24833,-0.78243 -0.0728,-2.01169 -0.52552,-2.01169 -0.17197,0 -0.31268,0.60351 -0.31268,1.34112 0,1.41665 0.47962,1.80035 0.8382,0.67057 z m -5.06822,-4.6949 c 1.16284,-1.28712 1.56647,-2.346 0.89427,-2.346 -0.34305,0 -1.70094,1.70698 -2.33375,2.93371 -0.6084,1.1794 0.10679,0.88741 1.43948,-0.58771 z m 15.77325,-4.54927 c 1.029,-1.02899 0.46241,-1.8201 -1.30354,-1.8201 -1.10184,0 -1.66681,0.78009 -1.19859,1.65498 0.44256,0.82692 1.7538,0.91345 2.50213,0.16512 z m -5.1882,-12.10286 c 0.71665,-0.91108 0.75807,-1.48387 0.1226,-1.69569 -0.30143,-0.10048 -1.44842,1.79199 -1.44842,2.38981 0,0.48394 0.67863,0.12865 1.32582,-0.69412 z m 8.45943,-17.6616 c 0.2031,-0.37949 0.21417,-0.7476 0.0281,-0.93369 -0.41768,-0.41767 -1.31776,0.62933 -1.62304,1.88796 l -0.24397,1.00584 0.75182,-0.66681 c 0.4135,-0.36674 0.9027,-0.94873 1.08711,-1.2933 z m -139.03595,-2.73382 c 0,-0.52248 -0.1886,-1.01282 -0.4191,-1.08966 -0.28448,-0.0948 -0.4191,0.25519 -0.4191,1.08966 0,0.83448 0.13462,1.18449 0.4191,1.08966 0.2305,-0.0768 0.4191,-0.56718 0.4191,-1.08966 z M 441.578,434.68458 c 1.47508,-0.75253 1.7256,-1.33497 0.57338,-1.33306 -0.87765,0.001 -2.9337,1.17201 -2.9337,1.67022 0,0.53224 0.91133,0.40205 2.36032,-0.33716 z m -3.5338,-3.37394 c 0,-0.63468 -0.1998,-0.83325 -0.92203,-0.91635 -1.06213,-0.12221 -1.20483,0.41135 -0.35975,1.34515 0.71952,0.79507 1.28178,0.60697 1.28178,-0.4288 z m 116.84346,-3.98857 c 0.37862,-1.40608 0.12317,-3.27981 -0.37873,-2.77792 -0.48302,0.48303 -1.66574,4.12017 -1.45216,4.46575 0.38927,0.62986 1.47675,-0.37264 1.83089,-1.68783 z m -107.95853,-4.3655 c 0,-0.58212 -1.31314,-1.67641 -2.01168,-1.67641 -0.99768,0 -0.81263,0.5938 0.4191,1.3448 1.22179,0.74494 1.59258,0.82215 1.59258,0.33161 z m 6.34299,-4.81733 c 0.80973,-1.31016 0.91416,-2.55885 0.214,-2.55885 -0.73019,0 -1.52778,1.35172 -1.52778,2.58921 0,1.40489 0.43294,1.39488 1.31378,-0.0303 z m -5.40072,-4.15143 c -0.1147,-1.38576 -0.71076,-1.70808 -0.88496,-0.47854 -0.13688,0.96614 0.13935,1.73584 0.62297,1.73584 0.21796,0 0.32395,-0.50864 0.26199,-1.2573 z m 111.04148,-65.6114 c 0,-0.81894 -0.1386,-1.57464 -0.308,-1.67934 -0.40626,-0.25108 -0.80738,1.62443 -0.53259,2.49022 0.37522,1.18221 0.84059,0.73329 0.84059,-0.81088 z m -10.81811,-9.81082 c 0.16471,-0.49413 -1.46697,-2.34219 -1.78648,-2.02341 -0.3654,0.36457 0.80407,2.672 1.27473,2.51511 0.21523,-0.0717 0.44551,-0.29301 0.51175,-0.4917 z m -4.02337,-8.04674 c 0.16471,-0.49412 -1.46697,-2.34219 -1.78648,-2.0234 -0.3654,0.36457 0.80407,2.67199 1.27473,2.51511 0.21523,-0.0718 0.44552,-0.29302 0.51175,-0.49171 z m -6.40976,-11.83336 c -0.24736,-1.5469 -1.53376,-4.35986 -1.99381,-4.35986 -0.45625,0 -0.0569,2.00078 0.79433,3.97948 0.89341,2.07679 1.50159,2.26966 1.19948,0.38038 z m 4.31956,-5.3657 c 0,-0.65506 -0.19209,-0.86048 -0.87919,-0.94016 -0.94357,-0.10943 -1.4294,0.54843 -1.07914,1.46122 0.12666,0.33006 0.52221,0.48368 1.07914,0.4191 0.6871,-0.0797 0.87919,-0.2851 0.87919,-0.94016 z m -9.95233,-3.93668 c -0.0666,-0.57717 -0.33764,-0.96311 -0.72844,-1.03729 -0.95652,-0.18156 -1.27998,0.3829 -0.69665,1.21572 0.74914,1.06954 1.55746,0.96833 1.42509,-0.17843 z m -15.02608,-18.32047 c 0,-0.41587 -2.44046,-2.8889 -2.85085,-2.8889 -0.42102,0 -0.0704,0.66228 1.03294,1.95133 1.23714,1.44533 1.81791,1.74485 1.81791,0.93757 z m -8.12843,-15.21047 c 0.0926,-0.28203 -0.24889,-0.4191 -1.04406,-0.4191 -1.16867,0 -1.754,0.36129 -1.30796,0.80733 0.37144,0.37144 2.20181,0.0693 2.35202,-0.38823 z m -44.85104,-7.68403 c 0.006,-1.31984 -0.30464,-2.17827 -0.70056,-1.93357 -0.34522,0.21335 -0.40419,2.5022 -0.0859,3.33178 0.30849,0.80388 0.77982,-0.0341 0.78642,-1.39821 z m 41.74757,-1.28473 c 0,-0.39819 -1.3472,-0.63666 -2.05732,-0.36416 -0.27488,0.10548 -0.40062,0.35223 -0.27943,0.54833 0.27238,0.44071 2.33675,0.27801 2.33675,-0.18417 z"
       id="path3863"
       transform="scale(0.26458333)" /></g></svg>
